<svg id="SvgjsSvg1089" width="288" height="288" xmlns="http://www.w3.org/2000/svg" version="1.1" xmlns:xlink="http://www.w3.org/1999/xlink" xmlns:svgjs="http://svgjs.com/svgjs"><defs id="SvgjsDefs1090"></defs><g id="SvgjsG1091"><svg xmlns="http://www.w3.org/2000/svg" viewBox="0 0 48 48" width="288" height="288"><path d="M36,13.33,30.74,6.4a1,1,0,0,0-.8-.4H25V2H23V6H18a1,1,0,0,0-.8.4L12,13.33a5,5,0,0,0-1,3V43a3,3,0,0,0,3,3H34a3,3,0,0,0,3-3V16.34A5,5,0,0,0,36,13.33ZM35,43a1,1,0,0,1-1,1H14a1,1,0,0,1-1-1V16.33a3,3,0,0,1,.6-1.8L18.5,8H23v4H20v2h8V12H25V8h4.45l4.94,6.53A3,3,0,0,1,35,16.34ZM24,20a9,9,0,1,0,9,9A9,9,0,0,0,24,20Zm0,16a7,7,0,1,1,7-7A7,7,0,0,1,24,36Zm1-11h2v2H23v1h3a1,1,0,0,1,1,1v3a1,1,0,0,1-1,1H25v1H23V33H21V31h4V30H22a1,1,0,0,1-1-1V26a1,1,0,0,1,1-1h1V24h2Z" data-name="43 Price Tag, Price, Tag, Tag Price" fill="#270b44" class="color000 svgShape"></path></svg></g></svg>